<svg width="146" height="70" viewBox="0 0 146 70" fill="none" xmlns="http://www.w3.org/2000/svg">
<path d="M1.52597 40.3481C-1.64523 34.8356 0.285819 27.8151 5.83909 24.6672L46.6832 1.51475C52.2365 -1.63312 59.3091 0.283713 62.4803 5.79612C65.6515 11.3085 63.7205 18.3291 58.1672 21.4769C58.1672 21.4769 22.8763 41.4816 17.323 44.6294C11.7698 47.7773 4.69717 45.8605 1.52597 40.3481Z" fill="#EA4335"/>
<path d="M83.5197 64.2039C80.3485 58.6915 82.2796 51.6709 87.8328 48.5231L128.677 25.3706C134.23 22.2227 141.303 24.1395 144.474 29.6519C147.645 35.1644 145.714 42.1849 140.161 45.3328L99.3168 68.4853C93.7635 71.6331 86.6909 69.7163 83.5197 64.2039Z" fill="#FBBE0C"/>
<path d="M1.6302 28.8905C4.85898 23.4111 11.9513 21.5674 17.4712 24.7724L58.0706 48.3453C63.5906 51.5503 65.448 58.5904 62.2193 64.0698C58.9905 69.5491 51.8982 71.3929 46.3782 68.1879L5.77881 44.615C0.258823 41.41 -1.59858 34.3699 1.6302 28.8905Z" fill="#4285F4"/>
<path d="M83.7276 5.94017C86.9564 0.460798 94.0487 -1.38293 99.5687 1.82209L140.168 25.3949C145.688 28.6 147.545 35.6401 144.317 41.1194C141.088 46.5988 133.996 48.4425 128.476 45.2375L87.8763 21.6647C82.3563 18.4596 80.4989 11.4196 83.7276 5.94017Z" fill="#28A769"/>
</svg>
